<?xml version="1.0" standalone="no"?>
<!DOCTYPE svg PUBLIC "-//W3C//DTD SVG 20010904//EN"
 "http://www.w3.org/TR/2001/REC-SVG-20010904/DTD/svg10.dtd">
<svg version="1.0" xmlns="http://www.w3.org/2000/svg"
 width="600.000000pt" height="600.000000pt" viewBox="0 0 600.000000 600.000000"
 preserveAspectRatio="xMidYMid meet">
<metadata>
Created by potrace 1.11, written by Peter Selinger 2001-2013
</metadata>
<g transform="translate(0.000000,600.000000) scale(0.100000,-0.100000)"
fill="#000000" stroke="none">
<path d="M2196 4099 c2 -4 -11 -7 -29 -7 -67 -2 -87 -5 -87 -12 0 -4 -8 -7
-17 -7 -27 2 -123 -26 -123 -35 0 -4 -3 -7 -7 -7 -5 1 -11 0 -15 -1 -5 -1 -14
-3 -20 -4 -7 -1 -12 -8 -10 -15 1 -7 -2 -10 -7 -6 -13 7 -49 -13 -78 -43 -13
-13 -23 -18 -23 -12 0 6 -13 -3 -30 -20 -16 -16 -35 -30 -41 -30 -7 0 -10 -3
-7 -6 8 -7 -44 -59 -56 -56 -5 2 -6 -4 -3 -12 4 -10 -2 -20 -13 -26 -11 -6
-20 -17 -20 -25 0 -8 -6 -18 -13 -22 -13 -9 -42 -63 -39 -75 1 -5 -2 -8 -7 -8
-5 0 -17 -21 -27 -47 -10 -27 -21 -53 -26 -60 -5 -6 -8 -20 -6 -30 2 -10 -2
-17 -9 -16 -6 1 -10 -5 -8 -15 1 -9 -3 -26 -9 -37 -7 -11 -11 -32 -10 -48 2
-15 0 -26 -4 -23 -4 2 -8 -8 -9 -22 -1 -15 -5 -49 -8 -77 -7 -50 -10 -456 -4
-507 2 -16 7 -28 12 -28 5 0 5 -6 -1 -13 -7 -8 -7 -18 -2 -27 5 -8 6 -18 4
-22 -3 -4 1 -8 8 -8 9 0 9 -3 -2 -10 -11 -7 -11 -10 -2 -10 7 0 11 -4 7 -9 -3
-5 -1 -12 5 -16 6 -4 8 -10 5 -15 -3 -5 1 -26 10 -46 8 -20 15 -45 15 -55 0
-11 4 -19 8 -19 4 0 8 -10 9 -22 1 -11 7 -24 14 -28 6 -4 8 -13 5 -19 -4 -6
-3 -11 3 -11 5 0 13 -10 17 -22 3 -12 13 -28 20 -36 8 -7 14 -20 14 -28 0 -8
5 -14 12 -14 6 0 8 -3 5 -6 -4 -4 1 -14 11 -23 9 -9 23 -28 31 -43 8 -16 21
-28 29 -28 9 0 13 -3 9 -6 -6 -6 79 -88 85 -82 7 6 36 -27 30 -36 -3 -5 0 -6
6 -2 6 3 14 1 17 -4 6 -10 39 -26 58 -28 4 -1 15 -8 23 -17 9 -8 35 -20 60
-26 24 -6 42 -14 40 -18 -3 -4 10 -6 27 -6 18 0 37 -3 43 -7 6 -5 23 -9 38
-10 14 -1 26 -6 26 -11 0 -5 6 -4 13 2 8 6 16 8 19 5 4 -3 21 -8 38 -10 25 -4
30 -2 25 8 -6 10 -5 11 6 1 17 -16 53 -17 43 -1 -5 7 -3 8 7 2 22 -13 43 -14
52 -1 6 9 10 9 14 -2 5 -11 7 -11 14 0 7 11 9 11 9 1 0 -8 5 -10 13 -5 13 8
27 11 65 15 12 1 22 5 22 8 0 5 18 9 58 12 6 1 12 4 12 8 0 4 7 7 15 8 8 1 22
3 30 4 8 1 15 5 15 10 0 4 7 8 15 8 8 0 15 5 15 11 0 6 7 9 15 5 9 -3 15 0 15
9 0 9 6 12 15 9 8 -4 15 -1 15 7 0 7 3 10 6 6 4 -3 15 4 25 16 10 12 18 19 19
14 0 -4 23 17 52 45 28 29 48 47 44 41 -4 -7 -5 -13 -1 -13 3 0 10 12 15 26 6
15 14 22 22 18 6 -4 8 -3 5 3 -3 5 8 26 24 47 17 20 32 44 34 54 1 9 7 16 12
15 5 -1 10 5 11 13 1 7 3 21 4 29 1 8 8 17 15 19 8 3 11 10 8 16 -3 5 -1 10 6
10 7 0 9 3 6 6 -3 4 -2 15 4 26 6 11 12 29 14 40 3 12 8 24 13 27 5 3 8 14 6
23 -1 10 2 21 8 24 6 4 5 10 -3 15 -10 6 -11 9 -1 9 7 0 12 13 12 30 0 17 4
30 9 30 5 0 8 8 7 18 -2 9 2 20 8 24 8 6 8 8 -1 8 -8 0 -9 9 -3 30 5 17 9 33
9 35 1 3 2 6 2 8 6 11 3 400 -3 403 -4 3 -3 16 2 29 6 16 6 25 0 25 -6 0 -9 3
-9 8 1 4 1 29 0 55 -1 32 -5 46 -12 41 -8 -5 -8 -1 0 14 7 14 8 23 1 27 -5 3
-10 17 -10 30 0 13 -4 34 -9 47 -19 48 -24 63 -22 71 1 4 -5 18 -14 30 -8 12
-15 28 -15 37 0 8 -9 26 -20 40 -11 14 -20 32 -20 40 0 8 -11 28 -25 44 -14
16 -25 33 -25 37 0 4 -11 19 -25 33 -14 14 -25 29 -25 35 0 5 -8 12 -17 15
-10 3 -27 19 -38 35 -10 16 -22 28 -26 25 -4 -2 -10 3 -13 12 -3 8 -10 13 -14
10 -5 -3 -19 6 -31 20 -12 14 -26 22 -31 19 -6 -4 -13 1 -16 9 -3 9 -14 16
-24 16 -10 0 -23 6 -30 14 -6 8 -18 12 -26 9 -8 -3 -14 1 -14 8 0 7 -3 9 -7 6
-3 -4 -15 1 -26 10 -12 11 -17 12 -12 4 6 -10 4 -12 -6 -5 -8 4 -23 10 -34 11
-10 2 -23 9 -27 16 -6 9 -8 8 -8 -3 0 -13 -1 -13 -10 0 -5 8 -10 12 -10 9 0
-4 -16 -3 -35 1 -21 5 -35 4 -35 -2 0 -5 -7 -2 -16 6 -17 17 -28 21 -20 7 3
-5 -5 -8 -19 -7 -14 0 -25 5 -25 10 0 5 -7 3 -15 -4 -12 -10 -15 -10 -15 1 0
11 -2 11 -10 -1 -5 -8 -10 -10 -10 -5 0 6 -9 11 -19 11 -11 0 -18 -3 -15 -7z
m6 -244 c9 -1 15 1 13 5 -2 4 18 6 45 6 28 -1 50 -3 50 -6 0 -3 23 -6 51 -7
28 -1 57 -7 63 -13 7 -5 23 -11 35 -13 12 -2 30 -10 39 -18 9 -8 21 -15 25
-16 5 0 20 -10 33 -22 13 -11 24 -18 24 -15 0 3 7 -1 15 -10 8 -8 15 -19 15
-25 0 -6 7 -11 15 -11 8 0 21 -13 30 -30 9 -16 19 -30 23 -30 8 0 39 -65 31
-66 -2 0 4 -8 14 -18 9 -10 15 -22 12 -27 -4 -5 -1 -9 5 -9 6 0 9 -4 5 -9 -3
-5 -1 -12 5 -16 6 -4 8 -10 5 -15 -3 -5 -1 -11 5 -15 6 -4 8 -11 5 -16 -4 -5
-2 -9 2 -9 5 0 10 -8 11 -17 3 -29 7 -47 13 -58 3 -5 4 -21 3 -35 -1 -14 3
-31 8 -37 6 -7 7 -13 3 -13 -4 0 -1 -8 6 -17 10 -12 11 -15 1 -9 -12 7 -11
-15 4 -61 2 -7 -1 -13 -6 -13 -5 0 -6 -10 -2 -22 7 -19 8 -110 3 -306 -1 -19
-5 -31 -11 -27 -6 3 -7 -1 -4 -9 3 -9 11 -13 18 -9 7 4 7 1 -1 -9 -7 -8 -10
-18 -6 -21 3 -4 2 -7 -3 -7 -6 0 -10 -18 -9 -40 1 -22 -4 -41 -10 -44 -6 -2
-10 -20 -9 -40 1 -20 -2 -36 -7 -36 -5 0 -8 -3 -8 -7 3 -18 -14 -73 -23 -73
-5 0 -7 -4 -3 -9 3 -5 1 -12 -5 -16 -6 -4 -8 -10 -5 -15 3 -4 -2 -13 -10 -20
-8 -7 -15 -21 -15 -31 0 -11 -5 -18 -12 -16 -7 1 -13 -4 -14 -10 -1 -7 -2 -17
-3 -22 0 -5 -10 -12 -21 -16 -11 -3 -19 -12 -17 -18 1 -7 -4 -11 -10 -10 -7 2
-12 -1 -10 -6 3 -14 -44 -51 -57 -44 -6 3 -8 3 -4 -2 7 -7 -43 -46 -64 -51 -5
-1 -10 -3 -13 -4 -3 -1 -9 -4 -15 -5 -5 -1 -12 -4 -15 -5 -3 -1 -8 -3 -12 -4
-5 -1 -14 -5 -20 -9 -7 -5 -17 -5 -23 -2 -5 3 -10 0 -10 -7 0 -9 -3 -9 -10 2
-5 8 -10 10 -10 4 0 -7 -17 -12 -37 -13 -21 -1 -55 -3 -75 -5 -21 -1 -38 0
-38 4 0 3 -9 6 -20 7 -12 1 -18 -3 -14 -9 4 -5 -6 -2 -22 8 -16 11 -25 13 -20
6 8 -13 -22 -2 -78 29 -13 7 -16 7 -12 0 4 -7 1 -8 -8 -5 -9 3 -16 10 -16 16
0 5 -4 7 -9 3 -6 -3 -14 3 -20 12 -6 10 -11 14 -11 10 0 -9 -13 1 -80 65 -28
26 -50 51 -50 57 0 6 -4 11 -10 11 -5 0 -10 7 -10 15 0 8 -4 15 -10 15 -5 0
-10 5 -10 10 0 6 -12 29 -26 51 -14 23 -21 38 -14 34 6 -4 2 10 -9 31 -11 20
-18 41 -15 46 3 4 0 8 -5 8 -6 0 -11 14 -11 30 0 17 -5 30 -12 31 -10 0 -10 2
-1 5 8 4 9 13 2 33 -6 16 -9 34 -7 42 2 8 -3 13 -12 11 -12 -3 -13 -1 -2 9 13
14 17 33 4 25 -10 -6 -8 36 2 53 5 7 4 16 -1 20 -12 9 -11 294 2 303 6 5 5 8
-3 8 -9 0 -10 5 -3 18 7 13 6 23 -2 32 -9 10 -9 11 1 6 9 -5 12 4 13 33 2 50
2 53 13 70 7 11 6 12 -5 6 -11 -7 -12 -6 -2 6 7 9 14 32 15 51 2 20 7 34 12
31 4 -3 5 4 1 16 -4 15 -3 21 7 19 7 -2 12 3 10 10 -3 18 50 123 65 129 7 3
10 9 8 14 -3 5 14 29 39 54 24 26 46 49 48 53 2 4 6 6 11 5 4 -2 7 2 7 9 0 6
3 9 6 5 4 -3 15 4 25 16 10 12 18 18 19 13 0 -5 12 1 27 15 14 13 23 19 19 12
-5 -8 2 -8 20 2 15 8 31 12 36 9 4 -3 8 0 8 5 0 6 11 11 24 11 14 0 28 5 31
10 4 6 12 7 18 3 6 -4 19 -8 29 -8z"/>
<path d="M2989 4063 c-6 -35 -3 -213 4 -213 4 0 5 -6 1 -12 -5 -9 -2 -9 9 1
12 9 17 10 17 2 0 -9 5 -9 20 -1 15 8 20 8 20 -2 0 -9 3 -9 10 2 9 13 10 13
10 0 0 -12 2 -12 9 -1 6 9 10 10 16 2 5 -9 10 -9 21 0 11 9 14 9 14 -1 0 -10
3 -10 14 -1 11 9 15 9 19 -1 4 -11 6 -11 6 0 1 10 6 10 21 2 15 -8 20 -8 20 2
0 9 3 9 12 0 8 -8 17 -8 31 -1 14 8 18 8 13 0 -4 -6 -2 -11 3 -11 6 0 11 5 11
11 0 8 4 8 13 0 10 -8 17 -7 25 1 9 9 12 9 12 -2 0 -13 2 -13 10 0 8 12 11 13
19 1 7 -11 9 -11 14 0 5 12 6 12 6 0 1 -11 4 -11 16 -1 12 10 15 10 15 0 0
-10 3 -10 15 0 12 10 15 10 15 -1 0 -12 2 -12 9 0 5 7 11 9 14 4 7 -11 37 -11
55 1 7 4 12 2 12 -5 0 -9 3 -9 14 0 11 9 15 9 19 -1 4 -10 6 -10 6 1 1 10 4
11 15 2 10 -8 16 -9 21 -1 4 7 10 6 18 -2 10 -10 12 -222 12 -916 0 -497 2
-907 5 -911 8 -12 222 -14 260 -3 3 1 5 410 5 909 0 697 3 910 12 922 9 12 12
13 13 2 0 -10 3 -11 14 -2 11 9 15 9 19 -1 4 -10 6 -10 6 1 1 11 4 11 16 1 12
-10 15 -10 15 0 0 9 3 10 13 1 10 -8 17 -7 25 1 9 9 12 9 12 0 0 -10 5 -10 20
-2 15 8 20 8 20 -2 0 -9 3 -9 10 2 9 13 10 13 10 0 0 -12 2 -12 9 -1 6 9 10
10 16 2 5 -9 10 -9 21 0 11 9 14 8 14 -2 0 -11 2 -11 10 1 9 13 10 13 10 0 0
-12 2 -12 9 -1 6 9 10 10 16 2 5 -9 10 -9 21 0 11 9 14 9 14 -1 0 -10 3 -10
14 -1 11 9 15 9 19 -1 4 -11 6 -11 6 0 1 10 6 10 21 2 15 -8 20 -8 20 2 0 9 3
9 12 0 8 -8 17 -8 31 -1 14 8 18 8 13 0 -4 -6 -2 -11 3 -11 6 0 11 5 11 11 0
8 4 8 14 0 11 -9 16 -9 21 0 6 8 10 7 16 -2 5 -8 9 -9 9 -3 0 6 7 11 15 11 8
0 15 -5 15 -10 0 -5 6 -4 14 2 11 9 15 9 19 -1 4 -10 6 -10 6 1 1 11 4 11 16
1 18 -15 25 -1 22 45 -2 17 1 40 5 53 4 13 4 21 0 18 -5 -3 -7 20 -6 50 2 60
-5 71 -37 53 -15 -8 -19 -8 -15 0 4 6 3 11 -3 11 -5 0 -13 -5 -16 -10 -4 -6
-11 -7 -17 -4 -17 10 -650 11 -672 1 -13 -6 -16 -6 -12 2 8 12 -6 15 -18 4
-10 -10 -46 -11 -40 -1 6 10 -39 3 -57 -8 -8 -4 -9 -3 -5 4 8 13 -6 17 -18 5
-10 -10 -46 -11 -40 -1 6 10 -39 3 -57 -8 -8 -4 -9 -3 -5 4 8 13 -6 17 -18 5
-10 -10 -46 -11 -40 -1 6 10 -39 3 -57 -8 -8 -4 -9 -3 -5 4 8 13 -6 17 -18 5
-10 -10 -46 -11 -40 -1 6 10 -39 3 -57 -8 -8 -4 -9 -3 -5 4 8 13 -6 17 -18 5
-10 -10 -46 -11 -40 -1 6 10 -39 3 -57 -8 -8 -4 -9 -3 -5 4 8 13 -6 17 -18 5
-10 -10 -46 -11 -40 -1 6 9 -39 4 -55 -6 -5 -4 -12 -2 -16 4 -3 5 -11 10 -16
10 -6 0 -8 -4 -5 -8 6 -10 -30 -9 -40 1 -10 9 -24 9 -25 0z"/>
</g>
</svg>
